<!-- Generated by IcoMoon.io -->
<svg version="1.1" xmlns="http://www.w3.org/2000/svg" width="25" height="32" viewBox="0 0 25 32">
<path d="M9.125 27.375q-0.125 1.281 0.734 2.313t2.266 1.063h0.031q1.438 0 2.297-1.047t0.734-2.328h-6.063zM12.25 0h-0.188q-1.156 0.25-1.656 0.859t-0.5 1.797q0 0.875-0.141 1.078t-0.984 0.484q-1.313 0.469-2.375 1.219-1.031 0.75-1.781 1.734t-1.156 2.203q-0.438 1.188-0.531 2.594-0.063 1.344-0.109 2.719t-0.297 2.719q-0.281 1.313-0.656 2.578t-1.156 2.359q-0.438 0.594-0.594 1.203t-0.125 1.297q0.031 0.656 0.078 0.781t0.578 0.125h22.875q0.563 0 0.672-0.094t0.109-0.688v-0.031q0.063-0.75-0.125-1.422t-0.625-1.297q-0.844-1.25-1.234-2.688t-0.609-2.906q-0.156-1-0.219-2.016t-0.063-2.047q-0.031-1.594-0.469-2.969t-1.281-2.469-2.031-1.906q-1.219-0.781-2.781-1.219-0.25-0.094-0.359-0.641t-0.109-0.734q0.125-1.063-0.5-1.797t-1.656-0.828v0zM12.219 4.281q0.281 0.625 0.766 1.125t1.297 0.719q2.375 0.688 3.609 2.313t1.266 4.063q0 1.406 0.078 2.531t0.234 2.188q0.25 1.563 0.672 3.203t1.328 3.172h-18.563q0.75-1.313 1.156-2.703t0.656-2.734q0.25-1.219 0.328-2.406t0.109-2.313q0.031-0.375 0.047-0.734t0.016-0.703q0.125-2.094 1.219-3.531t3.094-2.156q1.063-0.375 1.703-0.844t0.984-1.188v0z"></path>
</svg>
