<!-- Generated by IcoMoon.io -->
<svg version="1.1" xmlns="http://www.w3.org/2000/svg" width="37" height="32" viewBox="0 0 37 32">
<path d="M3 10.094v-3.813h29.375v3.813h-29.375zM3 27.438v-14.313h29.375v14.313h-29.375zM35.375 29.219v-24.719l-0.203-0.547t-1.172-0.672h-5.469v-2.188l-0.297-0.547t-1.203-0.547q-1 0-1.25 0.547l-0.25 0.547v2.188h-6.406v-2.188l-0.281-0.547t-1.219-0.547-1.219 0.547l-0.281 0.547v2.188h-6.281v-2.188l-0.313-0.531t-1.188-0.563-1.188 0.531l-0.313 0.563v2.188l-2.281-0.016t-3.188 0.016q-0.938 0.031-1.156 0.703l-0.219 0.672v24.438l0.203 0.641t0.891 0.734h32.094q1.719-0.063 1.953-0.656l0.234-0.594z"></path>
</svg>
