<!-- Generated by IcoMoon.io -->
<svg version="1.1" xmlns="http://www.w3.org/2000/svg" width="32" height="32" viewBox="0 0 32 32">
<title>uniE90A</title>
<path d="M24.188 12.375l-2.094-1.813-7.094 8.125-4.094-3.313-1.719 2.188 6.156 4.969 8.844-10.156zM16 32q-3.313 0-6.219-1.25-2.938-1.25-5.109-3.422t-3.422-5.109q-1.25-2.906-1.25-6.219t1.25-6.219q1.25-2.938 3.422-5.109t5.109-3.422q2.906-1.25 6.219-1.25t6.219 1.25q2.938 1.25 5.109 3.422t3.422 5.109q1.25 2.906 1.25 6.219t-1.25 6.219q-1.25 2.938-3.422 5.109t-5.109 3.422q-2.906 1.25-6.219 1.25zM16 29.219q2.75 0 5.156-1.031 2.406-1.063 4.188-2.844t2.844-4.188q1.031-2.406 1.031-5.156t-1.031-5.156q-1.063-2.406-2.844-4.188t-4.188-2.844q-2.406-1.031-5.156-1.031t-5.156 1.031q-2.406 1.063-4.188 2.844t-2.844 4.188q-1.031 2.406-1.031 5.156t1.031 5.156q1.063 2.406 2.844 4.188t4.188 2.844q2.406 1.031 5.156 1.031z"></path>
</svg>
