<!-- Generated by IcoMoon.io -->
<svg version="1.1" xmlns="http://www.w3.org/2000/svg" width="33" height="32" viewBox="0 0 33 32">
<path d="M16 7.688v7.031h-7.031v1.281h7.031v7.031h1.281v-7.031h7.031v-1.281h-7.031v-7.031h-1.281zM27.375 5.594q-2.25-2.156-5.063-3.25-2.813-1.063-5.75-1.063t-5.75 1.063q-2.844 1.094-5.063 3.25-2.25 2.125-3.344 4.844-1.125 2.688-1.125 5.5t1.125 5.531q1.094 2.688 3.344 4.844 2.219 2.156 5.063 3.219 2.813 1.063 5.75 1.063t5.75-1.063 5.063-3.219q2.219-2.156 3.344-4.844 1.125-2.719 1.125-5.531t-1.125-5.5q-1.125-2.719-3.344-4.844zM4.844 4.656q2.438-2.313 5.5-3.5 3.031-1.156 6.203-1.156t6.234 1.156q3.063 1.188 5.469 3.5 2.438 2.344 3.656 5.281t1.219 6-1.219 6-3.656 5.281q-2.406 2.344-5.469 3.5t-6.234 1.156-6.203-1.156q-3.063-1.156-5.5-3.5-2.406-2.344-3.625-5.281t-1.219-6 1.219-6 3.625-5.281v0z"></path>
</svg>
