<!-- Generated by IcoMoon.io -->
<svg version="1.1" xmlns="http://www.w3.org/2000/svg" width="32" height="32" viewBox="0 0 32 32">
<path d="M0 16q0-3.313 1.25-6.219 1.25-2.938 3.422-5.109t5.109-3.422q2.906-1.25 6.219-1.25t6.219 1.25q2.938 1.25 5.109 3.422t3.422 5.109q1.25 2.906 1.25 6.219t-1.25 6.219q-1.25 2.938-3.422 5.109t-5.109 3.422q-2.906 1.25-6.219 1.25t-6.219-1.25q-2.938-1.25-5.109-3.422t-3.422-5.109q-1.25-2.906-1.25-6.219zM16 2.781q-2.75 0-5.156 1.031-2.406 1.063-4.188 2.844t-2.844 4.188q-1.031 2.406-1.031 5.156t1.031 5.156q1.063 2.406 2.844 4.188t4.188 2.844q2.406 1.031 5.156 1.031t5.156-1.031q2.406-1.063 4.188-2.844t2.844-4.188q1.031-2.406 1.031-5.156t-1.031-5.156q-1.063-2.406-2.844-4.188t-4.188-2.844q-2.406-1.031-5.156-1.031zM17.594 19.125h-1.781l-0.531-10.375h2.844l-0.531 10.375zM15.156 22.375q0-0.375 0.109-0.656t0.297-0.469q0.188-0.219 0.484-0.313t0.641-0.094q0.375 0 0.656 0.094t0.469 0.313q0.188 0.188 0.281 0.484t0.094 0.641q0 0.375-0.094 0.656t-0.313 0.5q-0.188 0.219-0.453 0.313t-0.641 0.094q-0.344 0-0.625-0.094t-0.5-0.313q-0.188-0.188-0.297-0.484t-0.109-0.672v0z"></path>
</svg>
