<!-- Generated by IcoMoon.io -->
<svg version="1.1" xmlns="http://www.w3.org/2000/svg" width="33" height="32" viewBox="0 0 33 32">
<title>uniE913</title>
<path d="M21.125 11.688q0 0.375-0.063 0.719t-0.188 0.656-0.297 0.594-0.422 0.531q-0.219 0.281-0.516 0.516t-0.609 0.453-0.688 0.453-0.813 0.484l-0.188 2.844-0.656 0.125-0.25-3.375 0.375-0.188q0.469-0.281 0.875-0.531t0.719-0.469q0.344-0.219 0.594-0.438t0.438-0.438 0.313-0.453 0.188-0.453q0.094-0.219 0.141-0.469t0.047-0.531q0-0.594-0.203-1.047t-0.578-0.797q-0.406-0.344-0.938-0.516t-1.188-0.172q-0.5 0-0.984 0.094t-0.922 0.281q-0.469 0.188-0.891 0.438t-0.828 0.563l-0.156-0.938q0.375-0.281 0.797-0.5t0.891-0.406q0.5-0.219 1.031-0.313t1.094-0.094q0.406 0 0.797 0.063t0.734 0.188q0.375 0.125 0.672 0.281t0.547 0.375q0.281 0.219 0.484 0.484t0.359 0.578q0.125 0.313 0.203 0.656t0.078 0.75v0zM16.375 22.719v-1.656h1.25v1.656h-1.25zM27.375 5.594q-2.25-2.156-5.063-3.25-2.813-1.063-5.75-1.063t-5.75 1.063q-2.844 1.094-5.063 3.25v0q-2.25 2.125-3.344 4.844-1.125 2.688-1.125 5.5t1.125 5.531q1.094 2.688 3.344 4.844 2.219 2.156 5.063 3.219 2.813 1.063 5.75 1.063t5.75-1.063 5.063-3.219q2.219-2.156 3.344-4.844 1.125-2.719 1.125-5.531t-1.125-5.5q-1.125-2.719-3.344-4.844v0zM4.844 4.656q2.438-2.313 5.5-3.5 3.031-1.156 6.203-1.156t6.234 1.156q3.063 1.188 5.469 3.5 2.438 2.344 3.656 5.281t1.219 6-1.219 6-3.656 5.281v0q-2.406 2.344-5.469 3.5t-6.234 1.156-6.203-1.156q-3.063-1.156-5.5-3.5-2.406-2.344-3.625-5.281t-1.219-6 1.219-6 3.625-5.281v0z"></path>
</svg>
