<!-- Generated by IcoMoon.io -->
<svg version="1.1" xmlns="http://www.w3.org/2000/svg" width="234" height="32" viewBox="0 0 234 32">
<title>uniE90C</title>
<path d="M228.594 6.5l-0.031 0.031q1.594 1.625 2.594 3.797t1.156 4.672q0.188 2.75-0.656 5.25t-2.484 4.422-3.922 3.141-4.969 1.406q-2.531 0.188-4.828-0.578t-4.141-2.266v0.031q0.969 0.906 2.063 1.594 1.125 0.719 2.359 1.188t2.578 0.656 2.75 0.094q2.688-0.188 4.969-1.406t3.922-3.141 2.484-4.422 0.656-5.25q-0.094-1.406-0.438-2.688-0.375-1.313-0.953-2.484t-1.359-2.172q-0.813-1.031-1.75-1.875v0zM227 2.438q0.094 0.063 0.219 0t0.156-0.188q0.063-0.094 0-0.219t-0.156-0.188q-0.125-0.031-0.234 0.016t-0.172 0.172q-0.031 0.125 0.016 0.234t0.172 0.172v0zM227 2.375q-0.094-0.031-0.125-0.125t0-0.188 0.125-0.141 0.188-0.016 0.141 0.141-0.016 0.203q-0.031 0.094-0.125 0.141t-0.188-0.016v0zM227.156 2.188q0.031 0.031 0.063 0.016t0.063-0.047v-0.063t-0.031-0.031q0-0.031-0.016-0.047t-0.047-0.016l-0.156-0.063-0.125 0.313 0.063 0.031 0.063-0.125 0.063 0.031v0.156h0.094l-0.031-0.156zM227.063 2.094l0.031-0.094 0.063 0.031 0.047 0.047t0.016 0.047-0.031 0.031-0.063-0.031l-0.063-0.031zM205.594 21.656q-0.313 0.188-0.375 0.469t0.094 0.688q0.125 0.375 0.344 0.531t0.469 0.063q0.219-0.094 0.25-0.297t-0.031-0.672l-0.063-0.219q-0.063-0.438-0.078-0.672t0.016-0.422q0.063-0.219 0.188-0.359t0.281-0.234q0.438-0.156 0.828 0.094t0.641 0.906q0.281 0.688 0.141 1.188t-0.672 0.719l-0.156-0.469q0.344-0.156 0.438-0.5t-0.094-0.844q-0.156-0.406-0.391-0.578t-0.516-0.047q-0.219 0.094-0.266 0.313t0.016 0.688l0.063 0.25 0.031 0.219q0.063 0.375 0.063 0.531t-0.031 0.313-0.141 0.297-0.297 0.203q-0.406 0.188-0.781-0.047t-0.625-0.797q-0.219-0.625-0.109-1.078t0.578-0.672l0.188 0.438zM205.219 16.844l1.969-1.688 0.031 0.625-1.688 1.406 0.563 0.625 1.156-0.031v0.5l-3.344 0.063v-0.469l1.313-0.031h0.344l-0.094-0.125-0.125-0.125-1.469-1.656-0.031-0.656 1.375 1.563zM206.719 11.531l1.281 0.469-0.156 0.469-1.281-0.469-2.313 0.719 0.188-0.594 1.438-0.406 0.188-0.031q0.031-0.031 0.078-0.031t0.141-0.031q-0.063-0.094-0.109-0.156l-0.141-0.188-0.875-1.25 0.156-0.531 1.406 2.031zM208.969 5.219l-0.688 0.875 2.094 1.781-0.5 0.656-2.125-1.781-0.688 0.875-0.5-0.406 1.938-2.406 0.469 0.406zM213.469 1.969l-1.688 1 0.375 0.625 1.563-0.906 0.281 0.5-1.563 0.938 0.438 0.719 1.719-1.031 0.313 0.531-2.438 1.469-1.656-2.969 2.375-1.438 0.281 0.563zM219.969 3.281l-0.875 0.063-0.438-0.719-1.344 0.219-0.188 0.844-0.844 0.219 0.875-3.781 0.844-0.125 1.969 3.281zM218.063 1.531q-0.156-0.25-0.219-0.391t-0.156-0.328q-0.031 0.188-0.063 0.359t-0.063 0.422l-0.156 0.656 0.969-0.156-0.313-0.563zM218.938 11.031q-0.281 0.25-0.844 0.797t-1.125 1.109l-0.875 0.875q-0.563-0.094-1.094-0.141t-1.094-0.047q-1.219 0-2.25 0.313t-1.531 0.844q-0.188 0.219-0.297 0.438t-0.078 0.438q0 0.625 0.484 0.938t0.703 0.406q1.063 0.406 2.016 0.281t1.922-0.813q0.531-0.375 1.125-0.922t1.094-1.047l0.813 0.203t0.906 0.266l0.594 0.156q-0.563 0.594-1.141 1.156t-1.109 1.063l-0.063 0.063q-0.75 0.656-1.359 1.125t-1.391 0.656q-0.563 0.125-0.922 0.047t-0.484-0.141q-0.031 0-0.047 0.016l-0.016 0.016q0.469 0.375 0.953 0.563t1.203 0.125q0.688-0.063 1.484-0.5t1.641-1.219l1.469-1.5 1.031-1.063 2.125 0.625h0.031l-1.313 1.313-1.125 1.156q-0.844 0.844-1.375 1.344t-1.031 0.875q-0.844 0.594-1.563 0.922t-1.344 0.359q-0.313 0.031-0.75-0.031t-0.844-0.281l-0.031 0.031q0.406 0.375 0.984 0.719t1.453 0.344q1.031-0.031 2.031-0.594t2.375-1.875q0.656-0.625 1.266-1.266t1.172-1.234l1.375-1.438q0.688 0.156 1.328 0.219t1.328 0.063q0.969-0.031 1.688-0.453t0.719-0.953q0.031-0.438-0.219-0.672t-0.438-0.359q-0.156-0.094-0.578-0.281t-1.047-0.188q-0.719 0-1.484 0.328t-1.547 0.984l-0.688 0.625-0.281-0.063-1.906-0.531q0.406-0.438 0.781-0.781t0.688-0.656q0.813-0.719 1.609-1.047t1.297-0.359q0.375 0 0.922 0.047t0.797 0.234q0.031 0 0.047-0.016l0.016-0.016q-0.719-0.625-1.328-0.781t-1.141-0.156q-0.5 0-1.281 0.234t-1.75 1.016q-0.406 0.313-0.906 0.813t-1.031 1.063l-1-0.313-0.219-0.063-1.031-0.313q0.031 0 0.313-0.281l0.281-0.281q0.5-0.531 0.984-1t0.859-0.813q1.375-1.188 2.297-1.484t1.516-0.328q0.656 0 1.188 0.141t0.906 0.422l0.031-0.031q-0.781-0.719-1.438-1t-1.625-0.281q-0.844 0-1.828 0.469t-1.984 1.375v0zM211.688 16.719q-0.438-0.031-0.656-0.234t-0.219-0.547q0-0.031 0.438-0.828t2.938-0.922h0.625t0.844 0.063q-0.031 0-0.203 0.172l-0.172 0.172-0.219 0.188q-0.594 0.563-1.531 1.281t-1.844 0.656v0zM225.25 15.469q0.75-0.5 1.328-0.75t0.953-0.25q0.219 0.031 0.438 0.125t0.219 0.375-0.266 0.516-0.797 0.422q-0.469 0.188-1.141 0.234t-1.453-0.047q0.219-0.219 0.406-0.359t0.313-0.266v0zM189.313 27.656h-5.438l-2.25-6h-9.469l-2.281 6h-5.063l9.719-24h5.25l9.531 24zM180.125 17.656l-3.219-8.469-3.281 8.469h6.5zM159.156 3.75h-20.844v4.156h7.813v19.75h5.219v-19.75h7.813v-4.156zM131.125 23.5h-10v-19.75h-5.188v23.906h15.188v-4.156zM90.063 17.281h9.875v-4.125h-9.875v-5.25h11.156v-4.156h-16.344v23.906h16.688v-4.156h-11.5v-6.219zM50.75 27.656h8.219q3.156 0 5.656-0.844 2.5-0.813 4.234-2.344t2.641-3.75q0.938-2.219 0.938-5.031 0-2.781-0.938-5-0.906-2.219-2.641-3.75t-4.234-2.375q-2.5-0.813-5.656-0.813h-8.219v23.906zM55.938 7.906h3q2.063 0 3.594 0.5 1.563 0.531 2.578 1.516t1.547 2.453q0.5 1.438 0.5 3.313 0 1.906-0.5 3.344-0.531 1.438-1.547 2.438t-2.578 1.5q-1.531 0.531-3.594 0.531h-3v-15.594zM18.25 22.906l-18.25 7.938h36.5l-18.25-7.938zM18.25 19.281l16.906 8.375-16.906-26.781-16.906 26.781 16.906-8.438v0.063z"></path>
</svg>
