<!-- Generated by IcoMoon.io -->
<svg version="1.1" xmlns="http://www.w3.org/2000/svg" width="58" height="32" viewBox="0 0 58 32">
<path d="M29.125 32q-3.625-3.563-7.281-7.094-3.625-3.563-7.266-7.109t-7.297-7.109q-3.625-3.531-7.281-7.094 0.906-0.906 1.813-1.797t1.844-1.797l25.156 24.813q0.969-0.938 1.969-1.875t1.984-1.875 1.984-1.875l2-1.875q2.094-2.156 4.219-4.344 2.094-2.156 4.203-4.313t4.234-4.344q2.125-2.156 4.219-4.313 1 0.813 1.984 1.625t1.984 1.625l-7.125 7.188q-3.531 3.594-7.094 7.188l-14.25 14.375z"></path>
</svg>
