<svg width="47" height="47" viewBox="0 0 47 47" fill="none" xmlns="http://www.w3.org/2000/svg">
<path d="M28.8748 15.4432L29.3666 15.448L29.3795 14.9563L29.4789 11.1706L29.4908 10.7181L29.0417 10.6614L28.9791 11.1575L29.0416 10.6614L29.0414 10.6614L29.0411 10.6614L29.0401 10.6612L29.0367 10.6608L29.0246 10.6593L28.9793 10.654C28.9399 10.6495 28.8825 10.6431 28.8087 10.6355C28.6612 10.6203 28.4477 10.6002 28.181 10.5802C27.6481 10.5401 26.9008 10.5 26.0414 10.5C23.8554 10.5 22.2238 11.1577 21.1374 12.2344C20.0538 13.3085 19.5634 14.7495 19.5634 16.2203V19.1842H17H16.5V19.6842V23.7381V24.2381H17H19.5634V35V35.5H20.0634H24.4737H24.9737V35V24.2381H28.8038H29.2802L29.3032 23.7623L29.4994 19.7084L29.5248 19.1842H29H24.9737V16.9127V16.7229C24.9737 16.1667 25.0426 15.8814 25.1716 15.7211C25.2783 15.5886 25.5232 15.4307 26.2179 15.4307C26.9108 15.4307 27.5751 15.4338 28.0663 15.4369C28.3119 15.4385 28.5141 15.4401 28.6549 15.4412L28.8177 15.4426L28.8603 15.443L28.8712 15.4431L28.8739 15.4432L28.8746 15.4432L28.8747 15.4432L28.8748 15.4432Z" fill="white" stroke="#3A4351"/>
<path fill-rule="evenodd" clip-rule="evenodd" d="M23.5 46C35.9264 46 46 35.9264 46 23.5C46 11.0736 35.9264 1 23.5 1C11.0736 1 1 11.0736 1 23.5C1 35.9264 11.0736 46 23.5 46Z" stroke="#3A4351"/>
</svg>
