<!-- Generated by IcoMoon.io -->
<svg version="1.1" xmlns="http://www.w3.org/2000/svg" width="33" height="32" viewBox="0 0 33 32">
<path d="M20 29.969q1.063-0.875 2.172-2.281t1.922-3.438h3.906q-0.719 1.031-1.594 1.906-0.875 0.906-1.891 1.641t-2.141 1.266q-1.125 0.563-2.375 0.906v0zM4.031 24.25h3.406q0.938 2 2.141 3.406t2.328 2.313q-1.188-0.375-2.313-0.938-1.125-0.531-2.125-1.266t-1.875-1.609q-0.875-0.906-1.563-1.906v0zM12.375 1.906q-0.406 0.313-0.813 0.641t-0.813 0.734q-0.781 0.75-1.563 1.766t-1.469 2.359h-3.438q0.75-1 1.625-1.875 0.906-0.844 1.922-1.547t2.172-1.234q1.125-0.531 2.375-0.844v0zM27.75 7.406h-3.906q-0.938-2-2.125-3.344t-2.281-2.188q1.25 0.281 2.438 0.813t2.234 1.234 1.953 1.578q0.938 0.875 1.688 1.906v0zM25.594 15.281q-0.063-1.906-0.359-3.5t-0.797-2.938h4.25q0.813 1.438 1.297 3.063t0.578 3.375h-4.969zM25.594 16.719h4.969q-0.094 1.656-0.531 3.172t-1.156 2.891h-4.25q0.406-1.281 0.656-2.781t0.313-3.281zM16.75 22.781v-6.063h7.375q-0.063 1.813-0.328 3.313t-0.703 2.75h-6.344zM16.75 30.406v-6.156h5.75q-1.375 3-3.156 4.391t-2.594 1.766zM15.281 24.25v6.094q-0.938-0.406-2.859-1.797t-3.391-4.297h6.25zM7.25 16.719h8.031v6.063h-6.906q-0.469-1.25-0.766-2.75t-0.359-3.313v0zM5.781 15.281h-4.313q0.094-1.75 0.578-3.375t1.297-3.063h3.719q-0.531 1.344-0.875 2.938t-0.406 3.5v0zM15.281 8.844v6.438h-8.031q0.063-1.938 0.422-3.531t0.922-2.906h6.688zM15.281 7.406h-5.938q1.406-2.438 3.141-3.75t2.797-1.844v5.594zM22.906 8.844q0.531 1.313 0.844 2.906t0.375 3.531h-7.375v-6.438h6.156zM16.75 7.406v-5.594q1 0.531 2.609 1.828t2.891 3.766h-5.5zM1.469 16.719h4.313q0.063 1.781 0.344 3.281t0.75 2.781h-3.719q-0.75-1.375-1.172-2.891t-0.516-3.172v0zM16 0q-3.313 0-6.219 1.25-2.906 1.281-5.078 3.453t-3.453 5.078q-1.25 2.906-1.25 6.219t1.25 6.219q1.281 2.906 3.453 5.078t5.078 3.453q2.906 1.25 6.219 1.25t6.25-1.25q2.906-1.281 5.078-3.453t3.453-5.078q1.25-2.906 1.25-6.219t-1.25-6.219q-1.281-2.906-3.453-5.078t-5.078-3.453q-2.938-1.25-6.25-1.25z"></path>
</svg>
