<!-- Generated by IcoMoon.io -->
<svg version="1.1" xmlns="http://www.w3.org/2000/svg" width="60" height="32" viewBox="0 0 60 32">
<title>uniE90E</title>
<path d="M36.844 16.656q-0.969 0.938-1.906 1.875-0.938 0.969-1.891 1.906t-1.891 1.906q-0.938 0.938-1.906 1.875l-7.563-7.563 1.156-1.188q0.688 0.719 1.781 1.813 1.094 1.063 2.125 2.094t1.75 1.781l0.75 0.719 0.75-0.719 3.875-3.875q1.094-1.094 1.813-1.781zM0.094 31.813q-0.031-0.375-0.047-0.672t-0.016-0.641q-0.031-0.281-0.031-0.547v-0.547q0-6.063 2.313-11.438 2.313-5.344 6.313-9.344t9.344-6.313q5.375-2.313 11.438-2.313 6.094 0 11.469 2.313 5.344 2.313 9.344 6.313t6.313 9.344q2.313 5.375 2.313 11.438v0.5t-0.031 0.5q0 0.25-0.016 0.516t-0.016 0.516h-1.031q0-0.25 0.016-0.531t0.016-0.531q0.031-0.25 0.031-0.484v-0.484q0-5.844-2.25-11.031-2.219-5.156-6.078-9.016t-9.016-6.078q-5.188-2.25-11.063-2.25-5.844 0-11.031 2.25-5.156 2.219-9.016 6.078t-6.078 9.016q-2.25 5.188-2.25 11.031v0.531t0.031 0.5q0 0.344 0.016 0.688t0.047 0.688h-1.031z"></path>
</svg>
