<!-- Generated by IcoMoon.io -->
<svg version="1.1" xmlns="http://www.w3.org/2000/svg" width="32" height="32" viewBox="0 0 32 32">
<path d="M31.344 26.031q-0.406-1.656-1.375-3.094-1-1.438-2.344-2.641t-2.906-2.141q-1.594-0.969-3.156-1.625 1.719-1.313 2.656-3.219t0.938-4.094q0-1.906-0.719-3.594-0.719-1.656-1.969-2.922t-2.906-1.984q-1.688-0.719-3.594-0.719-1.875 0-3.563 0.719-1.656 0.719-2.906 1.984t-1.969 2.922q-0.719 1.688-0.719 3.594 0 2.188 0.938 4.094t2.656 3.219q-1.563 0.656-3.156 1.625-1.563 0.938-2.906 2.141t-2.344 2.641q-0.969 1.438-1.375 3.094l-0.344 1.719t-0.281 2.969h31.938q0.25-0.531-0.172-2.609l-0.422-2.078zM15.969 18.438q2.156 0 4.313 0.719t3.938 2.016 2.969 3.078q1.219 1.781 1.438 3.906h-25.281q0.219-2.125 1.438-3.906 1.188-1.781 2.969-3.078t3.938-2.016 4.281-0.719v0zM15.969 3.031q1.281 0 2.406 0.5 1.125 0.469 1.953 1.313t1.328 1.969q0.469 1.125 0.469 2.406t-0.469 2.406q-0.5 1.125-1.328 1.953t-1.953 1.328q-1.125 0.469-2.406 0.469-1.25 0-2.375-0.469-1.125-0.5-1.953-1.328t-1.328-1.953q-0.469-1.125-0.469-2.406t0.469-2.406q0.5-1.125 1.328-1.969t1.953-1.313q1.125-0.5 2.375-0.5z"></path>
</svg>
