<!-- Generated by IcoMoon.io -->
<svg version="1.1" xmlns="http://www.w3.org/2000/svg" width="32" height="32" viewBox="0 0 32 32">
<path d="M24.813 25.688q-0.531-2.188-1.984-3.906t-3.516-2.594q1.125-0.844 1.75-2.109t0.625-2.703q0-1.25-0.469-2.344-0.469-1.125-1.297-1.953t-1.953-1.297q-1.094-0.469-2.344-0.469t-2.375 0.469q-1.094 0.469-1.922 1.297t-1.297 1.953q-0.469 1.094-0.469 2.344 0 1.438 0.625 2.703t1.75 2.109q-2.063 0.875-3.516 2.594t-1.984 3.906q-1.063-0.969-1.875-2.125-0.844-1.156-1.406-2.438t-0.844-2.688q-0.313-1.375-0.313-2.813 0-2.813 1.063-5.281 1.094-2.5 2.938-4.344t4.313-2.938q2.5-1.063 5.313-1.063t5.281 1.063q2.5 1.094 4.344 2.938t2.938 4.344q1.063 2.469 1.063 5.281 0 1.438-0.313 2.813-0.281 1.406-0.844 2.688t-1.406 2.438q-0.813 1.156-1.875 2.125v0zM15.625 20.438q1.406 0 2.688 0.5 1.281 0.531 2.266 1.422t1.641 2.078q0.656 1.219 0.813 2.625-1.656 1.063-3.547 1.625t-3.859 0.563-3.859-0.563-3.547-1.625q0.156-1.406 0.813-2.625 0.656-1.188 1.641-2.078t2.266-1.422q1.281-0.5 2.688-0.5v0zM15.625 10.313q1.688 0 2.875 1.188t1.188 2.875-1.188 2.875-2.875 1.188-2.875-1.188-1.188-2.875 1.188-2.875 2.875-1.188zM15.625 0q-3.219 0-6.063 1.219-2.875 1.25-4.984 3.375t-3.359 4.969q-1.219 2.844-1.219 6.063t1.219 6.063q1.25 2.844 3.359 4.969t4.984 3.375q2.844 1.219 6.063 1.219t6.063-1.219q2.844-1.25 4.969-3.375t3.375-4.969q1.219-2.844 1.219-6.063t-1.219-6.063q-1.25-2.844-3.375-4.969t-4.969-3.375q-2.844-1.219-6.063-1.219z"></path>
</svg>
