<svg width="47" height="47" viewBox="0 0 47 47" fill="none" xmlns="http://www.w3.org/2000/svg">
<path fill-rule="evenodd" clip-rule="evenodd" d="M35.1966 14.3493C34.2514 14.8991 33.2034 15.2965 32.088 15.5116C31.1943 14.5806 29.924 14 28.516 14C25.8126 14 23.6217 16.1425 23.6217 18.7858C23.6217 19.1613 23.6651 19.5273 23.7491 19.8766C19.6811 19.6776 16.0749 17.7721 13.6606 14.8762C13.2389 15.5837 12.9989 16.4057 12.9989 17.282C12.9989 18.9434 13.8617 20.408 15.1754 21.2658C14.3737 21.2418 13.6183 21.0255 12.9589 20.6679V20.7277C12.9589 23.0468 14.6451 24.9809 16.884 25.4207C16.4731 25.5302 16.0417 25.5889 15.5949 25.5889C15.28 25.5889 14.9731 25.5587 14.6743 25.5028C15.2971 27.4039 17.104 28.7893 19.2469 28.8261C17.5703 30.1109 15.46 30.8748 13.1686 30.8748C12.7726 30.8748 12.3829 30.853 12 30.8083C14.1651 32.1674 16.7377 32.9598 19.5023 32.9598C28.5046 32.9598 33.4274 25.6666 33.4274 19.3418C33.4274 19.1334 33.4229 18.9277 33.4131 18.7226C34.3697 18.0481 35.1989 17.2043 35.8549 16.2454C34.9777 16.6248 34.0337 16.8824 33.0446 16.997C34.0537 16.4057 34.8303 15.4669 35.1966 14.3493Z" stroke="#3A4351" fill="white"/>
<path fill-rule="evenodd" clip-rule="evenodd" d="M23.5 46C35.9264 46 46 35.9264 46 23.5C46 11.0736 35.9264 1 23.5 1C11.0736 1 1 11.0736 1 23.5C1 35.9264 11.0736 46 23.5 46Z" stroke="#3A4351"/>
</svg>
