<!-- Generated by IcoMoon.io -->
<svg version="1.1" xmlns="http://www.w3.org/2000/svg" width="32" height="32" viewBox="0 0 32 32">
<title>uniE90B</title>
<path d="M2.719 9.25v-3.406h26.531v3.406h-26.531zM2.75 29.156v-17.125h26.5v17.125h-26.5zM32 4.688q0-0.875-0.375-1.25t-1.219-0.375h-4.563q-0.125-0.844-0.063-1.781t-1.188-1.281h-0.25q-1.25 0.375-1.219 1.266t-0.031 1.766h-6.156q-0.094-0.844-0.047-1.766t-1.203-1.266h-0.25q-1.219 0.375-1.188 1.266t-0.063 1.766h-5.25q-0.094-0.844-0.047-1.766t-1.234-1.266h-0.25q-1.188 0.375-1.156 1.281t-0.063 1.781h-4.406q-1.063 0-1.422 0.375t-0.359 1.438v25.25q0 0.906 0.203 1.219t1.047 0.656h0.25q0.219-0.031 0.469-0.063t0.469-0.031q3.5 0 7-0.031h20.906q0.906 0 1.281-0.359t0.375-1.234v-25.594zM22.781 16.406l-1.375-1.125-6.813 7.813-3.938-4.031-1.438 1.063 5.313 5.75 8.25-9.469z"></path>
</svg>
