<!-- Generated by IcoMoon.io -->
<svg version="1.1" xmlns="http://www.w3.org/2000/svg" width="28" height="32" viewBox="0 0 28 32">
<title>uniE910</title>
<path d="M0 2.906v18.906q0 1.219 0.859 2.063t2.047 0.844h4.406l6.5 7.156 6.563-7.156h4.344q1.219 0 2.063-0.844t0.844-2.063v-18.906q0-1.188-0.844-2.047t-2.063-0.859h-21.813q-1.188 0-2.047 0.859t-0.859 2.047v0zM4.375 4.375h4.344v1.438h-2.906v13.094h3.031l-0.125 1.469h-4.344v-16zM13.094 7.281h1.438l0.094 4.375h4.281v1.438h-4.281l-0.094 4.375-1.438 0.031-0.031-4.375h-4.344v-1.438h4.344l0.031-4.406zM23.281 4.375v16h-4.375v-1.438h2.906v-13.125h-2.906v-1.438h4.375z"></path>
</svg>
